/* XPM */
static char *_557236960552[] = {
/* columns rows colors chars-per-pixel */
"65 65 58 1 ",
"  c black",
". c gray1",
"X c #070707",
"o c #0E0D0D",
"O c #111111",
"+ c #151514",
"@ c #171716",
"# c #1F1F1E",
"$ c #20201F",
"% c #212120",
"& c #262524",
"* c #292827",
"= c #2C2B2A",
"- c #323130",
"; c #333331",
": c #393836",
"> c #3B3A38",
", c #3F3E3D",
"< c #464543",
"1 c #4B4A48",
"2 c #4F4E4C",
"3 c #545350",
"4 c #6C6A68",
"5 c #716F6C",
"6 c #767471",
"7 c #787673",
"8 c #7A7875",
"9 c #83817D",
"0 c #868380",
"q c #8B8985",
"w c #8E8C88",
"e c #918E8B",
"r c #94918D",
"t c #9C9994",
"y c #9F9C98",
"u c #A5A39F",
"i c #AAA7A3",
"p c #B3B0AC",
"a c #BAB7B2",
"s c #BBB8B3",
"d c #BCB9B4",
"f c #C0BCB8",
"g c #C4C1BC",
"h c #C5C2BD",
"j c #C7C4BF",
"k c #CCC8C3",
"l c #D4D1CB",
"z c #D6D3CD",
"x c #D7D4CE",
"c c #DCD8D3",
"v c #DFDBD5",
"b c #E2DFD9",
"n c #E5E1DC",
"m c #E8E4DE",
"M c #EAE7E1",
"N c #EBE7E1",
"B c #ECE8E2",
"V c #EFEBE5",
/* pixels */
"                                                                7",
"                                                               7V",
"                                                              7VV",
"                                                             7VVV",
"                                                            7VVVV",
"                                                           7VVVVV",
"                                                          7VVVVVV",
"                                                         7VVVVVVV",
"                                                        7VVVVVVVV",
"                                                       7VVVVVVVVV",
"                                                      7VVVVVVVVVV",
"                                                     7VVVVVVVVVVV",
"                                                    7VVVVVVVVVVVV",
"                                                   7VVVVVVVVVVVVV",
"             2uX      $s%                         7VVVVVVVVVVVVVV",
"            <BViX    %xVx+                       7VVVVVVVVVVVVVVV",
"            +jVViX  %lVVr                       7VVVVVVVVVVVVVVVV",
"             +jVViX%zVVr                       7VVVVVVVVVVVVVVVVV",
"              +jVVpzVVr                       7VVVVVVVVVVVVVVVVVV",
"               +jVVVVr                       7VVVVVVVVVVVVVVVVVVV",
"                ;MVVzX                      7VVVVVVVVVVVVVVVVVVVV",
"               $zVVBViX                    7VVVVVVVVVVVVVVVVVVVVV",
"              $zVVtkVViX                  7VVVVVVVVVVVVVVVVVVVVVV",
"             %zVVr +jVViX                7VVVVVVVVVVVVVVVVVVVVVVV",
"            %zVVr   +jVViX              7VVVVVVVVVVVVVVVVVVVVVVVV",
"            :nVr     +jVhO             7VVVVVVVVVVVVVVVVVVVVVVVVV",
"             >q       +yO             7VVVVVVVVVVVVVVVVVVVVVVVVVV",
"                                     7VVVVVVVVVVVVVVVVVVVVVVVVVVV",
"                                    7VVVVVVVVVVVVVVVVVVVVVVVVVVVV",
"                                   7VVVVVVVVVVVVVVVVVVVVVVVVVVVVV",
"                                  7VVVVVVVVVVVVVVVVVVVVVVVVVVVVVV",
"                                 7VVVVVVVVVVVVVVVVVVVVVVVVVVVVVVV",
"                                7VVVVVVVVVVVVVVVVVVVVVVVVVVVVVVVV",
"                               7VVVVVVVVVVVVVVVVVVVVVVVVVVVVVVVVV",
"                              7VVVVVVVVVVVVVVVVVVVVVVVVVVVVVVVVVV",
"                             7VVVVVVVVVVVVVVVVVVVVVVVVVVVVVVVVVVV",
"                            7VVVVVVVVVVVVVVVVVVVVVVVVVVVVVVVVVVVV",
"                           7VVVVVVVVVVVVVVVVVVVVVVVVVVVVVVVVVVVVV",
"                          7VVVVVVVVVVVVVVVVVVVVVVVVVVVVVVVVVVVVVV",
"                         7VVVVVVVVVVVVVVVVkw69pBVVVVVVVVVVVVVVVVV",
"                        7VVVVVVVVVVVVVVVv3     &dVVVVVVVVVVVVVVVV",
"                       7VVVVVVVVVVVVVVVh+       X9VVVVVVVVVVVVVVV",
"                      7VVVVVVVVVVVVVVVM=          fVVVVVVVVVVVVVV",
"                     7VVVVVVVVVVVVVVVV8           *VVVVVVVVVVVVVV",
"                    7VVVVVVVVVVVVVVVVV#            dVVVVVVVVVVVVV",
"                   7VVVVVVVVVVVVVVVVVb             eVVVVVVVVVVVVV",
"                  7VVVVVVVVVVVVVVVVVVx             0VVVVVVVVVVVVV",
"                 7VVVVVVVVVVVVVVVVVVVBX            yVVVVVVVVVVVVV",
"                7VVVVVVVVVVVVVVVVVVVVV<            vVVVVVVVVVVVVV",
"               7VVVVVVVVVVVVVVVVVVVVVVa.          4VVVVVVVVVVVVVV",
"              7VVVVVVVVVVVVVVVVVVVVVVVV5         &mVVVVVVVVVVVVVV",
"             7VVVVVVVVVVVVVVVVVVVVVVVVVM6X      ,zVVVVVVVVVVVVVVV",
"            7VVVVVVVVVVVVVVVVVVVVVVVVVVVVd1o X;wVVVVVVVVVVVVVVVVV",
"           7VVVVVVVVVVVVVVVVVVVVVVVVVVVVVVVVnVVVVVVVVVVVVVVVVVVVV",
"          7VVVVVVVVVVVVVVVVVVVVVVVVVVVVVVVVVVVVVVVVVVVVVVVVVVVVVV",
"         7VVVVVVVVVVVVVVVVVVVVVVVVVVVVVVVVVVVVVVVVVVVVVVVVVVVVVVV",
"        7VVVVVVVVVVVVVVVVVVVVVVVVVVVVVVVVVVVVVVVVVVVVVVVVVVVVVVVV",
"       7VVVVVVVVVVVVVVVVVVVVVVVVVVVVVVVVVVVVVVVVVVVVVVVVVVVVVVVVV",
"      7VVVVVVVVVVVVVVVVVVVVVVVVVVVVVVVVVVVVVVVVVVVVVVVVVVVVVVVVVV",
"     7VVVVVVVVVVVVVVVVVVVVVVVVVVVVVVVVVVVVVVVVVVVVVVVVVVVVVVVVVVV",
"    7VVVVVVVVVVVVVVVVVVVVVVVVVVVVVVVVVVVVVVVVVVVVVVVVVVVVVVVVVVVV",
"   7VVVVVVVVVVVVVVVVVVVVVVVVVVVVVVVVVVVVVVVVVVVVVVVVVVVVVVVVVVVVV",
"  7VVVVVVVVVVVVVVVVVVVVVVVVVVVVVVVVVVVVVVVVVVVVVVVVVVVVVVVVVVVVVV",
" 7VVVVVVVVVVVVVVVVVVVVVVVVVVVVVVVVVVVVVVVVVVVVVVVVVVVVVVVVVVVVVVV",
"7VVVVVVVVVVVVVVVVVVVVVVVVVVVVVVVVVVVVVVVVVVVVVVVVVVVVVVVVVVVVVVVV"
};
